<svg width="74" height="74" viewBox="0 0 74 74" fill="none" xmlns="http://www.w3.org/2000/svg">
<g clip-path="url(#clip0_68_125)">
<path d="M37 0C27.187 0 17.7759 3.8982 10.837 10.837C3.8982 17.7759 0 27.187 0 37C0 46.813 3.8982 56.2241 10.837 63.163C17.7759 70.1018 27.187 74 37 74C46.813 74 56.2241 70.1018 63.163 63.163C70.1018 56.2241 74 46.813 74 37C74 27.187 70.1018 17.7759 63.163 10.837C56.2241 3.8982 46.813 0 37 0V0ZM53.1875 34.6875C53.8008 34.6875 54.389 34.9311 54.8227 35.3648C55.2564 35.7985 55.5 36.3867 55.5 37C55.5 37.6133 55.2564 38.2015 54.8227 38.6352C54.389 39.0689 53.8008 39.3125 53.1875 39.3125H26.3949L36.3248 49.2377C36.5398 49.4528 36.7103 49.708 36.8267 49.9889C36.943 50.2698 37.0029 50.5709 37.0029 50.875C37.0029 51.1791 36.943 51.4802 36.8267 51.7611C36.7103 52.042 36.5398 52.2972 36.3248 52.5123C36.1097 52.7273 35.8545 52.8978 35.5736 53.0142C35.2927 53.1305 34.9916 53.1904 34.6875 53.1904C34.3834 53.1904 34.0823 53.1305 33.8014 53.0142C33.5205 52.8978 33.2653 52.7273 33.0502 52.5123L19.1752 38.6373C18.9599 38.4224 18.789 38.1672 18.6725 37.8863C18.5559 37.6054 18.4959 37.3042 18.4959 37C18.4959 36.6958 18.5559 36.3946 18.6725 36.1137C18.789 35.8327 18.9599 35.5776 19.1752 35.3627L33.0502 21.4877C33.2653 21.2727 33.5205 21.1022 33.8014 20.9858C34.0823 20.8695 34.3834 20.8096 34.6875 20.8096C34.9916 20.8096 35.2927 20.8695 35.5736 20.9858C35.8545 21.1022 36.1097 21.2727 36.3248 21.4877C36.5398 21.7028 36.7103 21.958 36.8267 22.2389C36.943 22.5198 37.0029 22.8209 37.0029 23.125C37.0029 23.4291 36.943 23.7302 36.8267 24.0111C36.7103 24.292 36.5398 24.5472 36.3248 24.7623L26.3949 34.6875H53.1875Z" fill="#A797FF"/>
</g>
<defs>
<clipPath id="clip0_68_125">
<rect width="74" height="74" fill="white" transform="matrix(-1 0 0 1 74 0)"/>
</clipPath>
</defs>
</svg>
