<svg width="74" height="74" viewBox="0 0 74 74" fill="none" xmlns="http://www.w3.org/2000/svg">
<path d="M37 0C46.813 0 56.2241 3.8982 63.163 10.837C70.1018 17.7759 74 27.187 74 37C74 46.813 70.1018 56.2241 63.163 63.163C56.2241 70.1018 46.813 74 37 74C27.187 74 17.7759 70.1018 10.837 63.163C3.8982 56.2241 0 46.813 0 37C0 27.187 3.8982 17.7759 10.837 10.837C17.7759 3.8982 27.187 0 37 0V0ZM20.8125 34.6875C20.1992 34.6875 19.611 34.9311 19.1773 35.3648C18.7436 35.7985 18.5 36.3867 18.5 37C18.5 37.6133 18.7436 38.2015 19.1773 38.6352C19.611 39.0689 20.1992 39.3125 20.8125 39.3125H47.6051L37.6753 49.2378C37.4602 49.4528 37.2897 49.708 37.1733 49.9889C37.057 50.2698 36.9971 50.5709 36.9971 50.875C36.9971 51.1791 37.057 51.4802 37.1733 51.7611C37.2897 52.042 37.4602 52.2972 37.6753 52.5122C37.8903 52.7273 38.1455 52.8978 38.4264 53.0142C38.7073 53.1305 39.0084 53.1904 39.3125 53.1904C39.6166 53.1904 39.9177 53.1305 40.1986 53.0142C40.4795 52.8978 40.7347 52.7273 40.9497 52.5122L54.8247 38.6372C55.0401 38.4224 55.211 38.1673 55.3275 37.8863C55.4441 37.6054 55.5041 37.3042 55.5041 37C55.5041 36.6958 55.4441 36.3946 55.3275 36.1137C55.211 35.8327 55.0401 35.5776 54.8247 35.3628L40.9497 21.4877C40.7347 21.2727 40.4795 21.1022 40.1986 20.9858C39.9177 20.8695 39.6166 20.8096 39.3125 20.8096C39.0084 20.8096 38.7073 20.8695 38.4264 20.9858C38.1455 21.1022 37.8903 21.2727 37.6753 21.4877C37.4602 21.7028 37.2897 21.958 37.1733 22.2389C37.057 22.5198 36.9971 22.8209 36.9971 23.125C36.9971 23.4291 37.057 23.7302 37.1733 24.0111C37.2897 24.292 37.4602 24.5472 37.6753 24.7623L47.6051 34.6875H20.8125Z" fill="#A797FF"/>
</svg>
