<svg width="32" height="32" viewBox="0 0 32 32" fill="none" xmlns="http://www.w3.org/2000/svg">
<path d="M30.3998 0H6.39976C5.55106 0 4.73713 0.337142 4.13701 0.937258C3.5369 1.53737 3.19976 2.35131 3.19976 3.2V8H-0.000244141V11.2H3.19976V14.4H-0.000244141V17.6H3.19976V20.8H-0.000244141V24H3.19976V28.8C3.19976 29.6487 3.5369 30.4626 4.13701 31.0627C4.73713 31.6629 5.55106 32 6.39976 32H30.3998C30.8241 32 31.2311 31.8314 31.5311 31.5314C31.8312 31.2313 31.9998 30.8243 31.9998 30.4V1.6C31.9998 1.17565 31.8312 0.768687 31.5311 0.468629C31.2311 0.168571 30.8241 0 30.3998 0ZM17.5998 4.7984C20.2366 4.7984 22.3998 6.96 22.3998 9.5984C22.3951 10.8702 21.888 12.0885 20.9888 12.988C20.0897 13.8874 18.8715 14.3949 17.5998 14.4C14.9646 14.4 12.7998 12.2352 12.7998 9.5984C12.7998 6.96 14.9646 4.7984 17.5998 4.7984ZM27.1998 25.6H7.99976V24.4C7.99976 20.8496 12.3278 17.2 17.5998 17.2C22.8718 17.2 27.1998 20.8496 27.1998 24.4V25.6Z" fill="black"/>
</svg>
