<svg width="19" height="21" viewBox="0 0 19 21" fill="none" xmlns="http://www.w3.org/2000/svg">
<path d="M5.67868 21C1.37611 18.5751 0.243333 16.2799 0.890973 13.1451C1.36909 10.8303 2.93466 8.94709 3.08477 6.63679C3.75354 7.85381 4.03297 8.73138 4.1077 10.0032C6.2347 7.39716 7.64027 3.78956 7.7235 0C7.7235 0 13.2636 3.25518 13.6271 8.17215C14.104 7.15867 14.3441 5.54904 13.8672 4.50583C15.2979 5.54909 23.6723 14.8105 12.7329 21C14.7896 16.9953 13.2635 11.5918 9.69242 9.09618C9.93091 10.1693 9.51278 14.1716 7.93294 15.9302C8.37068 12.9917 7.51644 11.7491 7.51644 11.7491C7.51644 11.7491 7.22324 13.3951 6.08567 15.0578C5.04687 16.5761 4.3271 18.1876 5.67868 21Z" fill="#A49B9B"/>
</svg>
