<svg width="20" height="18" viewBox="0 0 20 18" fill="none" xmlns="http://www.w3.org/2000/svg">
<path d="M10 17.8183C9.865 17.8179 9.73391 17.7728 9.62724 17.69C6.22946 15.05 3.88891 12.7766 2.25113 10.5339C0.161132 7.66775 -0.315535 5.02164 0.833354 2.66886C1.65224 0.988309 4.00502 -0.386691 6.75502 0.413864C8.06618 0.792593 9.21015 1.60479 10 2.71775C10.7899 1.60479 11.9339 0.792593 13.245 0.413864C15.9889 -0.374469 18.3478 0.988309 19.1667 2.66886C20.3156 5.02164 19.8389 7.66775 17.7489 10.5339C16.1111 12.7766 13.7706 15.05 10.3728 17.69C10.2661 17.7728 10.135 17.8179 10 17.8183ZM5.19058 1.40998C4.53623 1.38451 3.8873 1.53773 3.31345 1.85318C2.7396 2.16864 2.2625 2.63442 1.93335 3.20053C0.986132 5.14386 1.41391 7.3072 3.24113 9.80664C5.18298 12.3113 7.45683 14.5399 10 16.4311C12.5428 14.5418 14.8166 12.3153 16.7589 9.81275C18.5922 7.3072 19.0139 5.14386 18.0667 3.20664C17.4556 1.98442 15.6222 1.01275 13.5811 1.5872C12.9267 1.78061 12.3199 2.10891 11.8 2.55097C11.2801 2.99302 10.8584 3.53903 10.5622 4.15386C10.5162 4.26595 10.4379 4.36182 10.3372 4.42928C10.2366 4.49675 10.1181 4.53277 9.99697 4.53277C9.87579 4.53277 9.75736 4.49675 9.6567 4.42928C9.55605 4.36182 9.47773 4.26595 9.43169 4.15386C9.13773 3.53749 8.71683 2.9902 8.19656 2.54788C7.6763 2.10555 7.06843 1.77817 6.4128 1.5872C6.01556 1.47182 5.60422 1.41218 5.19058 1.40998Z" fill="#171427"/>
</svg>
