<svg width="24" height="32" viewBox="0 0 24 32" fill="none" xmlns="http://www.w3.org/2000/svg">
<path d="M10.4965 31.281C7.29703 27.258 -2.09808e-05 17.5078 -2.09808e-05 12.0311C-2.09808e-05 5.38895 5.36362 0 11.9746 0C18.5856 0 23.9493 5.38895 23.9493 12.0311C23.9493 17.5078 16.6522 27.258 13.4528 31.281C12.6856 32.2397 11.2636 32.2397 10.4965 31.281ZM11.9746 16.0415C14.1762 16.0415 15.9662 14.2431 15.9662 12.0311C15.9662 9.81916 14.1762 8.02076 11.9746 8.02076C9.77304 8.02076 7.98308 9.81916 7.98308 12.0311C7.98308 14.2431 9.77304 16.0415 11.9746 16.0415Z" fill="#171427"/>
</svg>
