<svg width="18" height="18" viewBox="0 0 18 18" fill="none" xmlns="http://www.w3.org/2000/svg">
<path d="M8.46091 0.345871H9.90811C10.0368 0.345871 10.1011 0.410191 10.1011 0.538832V17.5194C10.1011 17.6481 10.0368 17.7124 9.90811 17.7124H8.46091C8.33226 17.7124 8.26794 17.6481 8.26794 17.5194V0.538832C8.26794 0.410191 8.33226 0.345871 8.46091 0.345871Z" fill="black"/>
<path d="M1.08005 8.11256H17.2888C17.4174 8.11256 17.4817 8.17688 17.4817 8.30553V9.75273C17.4817 9.88137 17.4174 9.9457 17.2888 9.9457H1.08005C0.951405 9.9457 0.887085 9.88137 0.887085 9.75273V8.30553C0.887085 8.17688 0.951405 8.11256 1.08005 8.11256Z" fill="black"/>
</svg>
