<svg width="33" height="32" viewBox="0 0 33 32" fill="none" xmlns="http://www.w3.org/2000/svg">
<path d="M32.072 11.5334C31.9725 11.2403 31.7893 10.9827 31.545 10.7925C31.3008 10.6023 31.0062 10.4878 30.6977 10.4631L21.6711 9.74586L17.765 1.09927C17.6406 0.820784 17.4383 0.584249 17.1824 0.418214C16.9265 0.252179 16.6281 0.163742 16.3231 0.163574C16.0181 0.163407 15.7195 0.251517 15.4635 0.417271C15.2075 0.583024 15.0049 0.819338 14.8802 1.09769L10.9741 9.74586L1.94749 10.4631C1.64421 10.4871 1.35427 10.598 1.11237 10.7825C0.870461 10.967 0.686827 11.2173 0.583436 11.5034C0.480045 11.7895 0.461273 12.0994 0.529368 12.3959C0.597462 12.6924 0.74954 12.963 0.967405 13.1754L7.63799 19.6781L5.27882 29.8938C5.20719 30.203 5.23015 30.5266 5.34472 30.8226C5.45929 31.1186 5.66019 31.3734 5.92134 31.5538C6.18249 31.7342 6.49184 31.832 6.80925 31.8344C7.12665 31.8368 7.43745 31.7438 7.70132 31.5674L16.3226 25.8199L24.9438 31.5674C25.2135 31.7464 25.5316 31.8386 25.8552 31.8315C26.1789 31.8244 26.4926 31.7184 26.7542 31.5277C27.0158 31.3369 27.2127 31.0707 27.3185 30.7647C27.4242 30.4588 27.4337 30.1277 27.3457 29.8162L24.4498 19.6829L31.6318 13.2197C32.1021 12.7954 32.2747 12.1335 32.072 11.5334Z" fill="#171427"/>
</svg>
